<?xml version="1.0" encoding="UTF-8"?>
<svg width="31px" height="27px" viewBox="0 0 31 27" version="1.1" xmlns="http://www.w3.org/2000/svg" xmlns:xlink="http://www.w3.org/1999/xlink">
    <title></title>
    <g id="Page-1" stroke="none" stroke-width="1" fill="none" fill-rule="evenodd">
        <g id="Artboard" transform="translate(-1.000000, -3.000000)" fill="#4A4A4A" fill-rule="nonzero">
            <path d="M16.5000018,26.8677727 L5.86433756,16.9380852 C4.61525524,15.7755863 3.90625092,14.1408207 3.90625092,12.4333981 L3.90625092,12.4333981 L3.90625092,12.0822269 C3.90625092,9.2728523 5.93759876,6.87337935 8.7076183,6.4114064 C10.5421888,6.10624963 12.4070318,6.70445305 13.7208997,7.96503943 L13.7208997,7.96503943 L16.44551,10.7986324 L19.279103,7.96503943 C20.592971,6.70445305 22.457814,6.10624963 24.2923854,6.4114064 C27.0593765,6.87337935 29.0937518,9.2728523 29.0937518,12.0822269 L29.0937518,12.0822269 L29.0937518,12.4333981 C29.0937518,14.1408207 28.3853527,15.7755863 27.1380885,16.9380852 L27.1380885,16.9380852 L16.5000018,26.8677727 Z M15.7734384,5.9609375 L15.5585988,5.75339121 C13.5952488,3.92276032 10.8390847,3.10197952 8.22929743,3.54511756 C4.05882838,4.24019635 1,7.85000074 1,12.0822269 L1,12.0822269 L1,12.4333981 C1,14.9460934 2.0432224,17.3498051 3.88142556,19.0632809 L3.88142556,19.0632809 L14.8228517,29.2775394 C15.2769533,29.7013676 15.876367,29.9375 16.5,29.9375 C17.1236321,29.9375 17.7230476,29.7013676 18.1771492,29.2775394 L18.1771492,29.2775394 L29.1179684,19.0632809 C30.958593,17.3498051 32,14.9460934 32,12.4333981 L32,12.4333981 L32,12.0822269 C32,7.85000074 28.9423828,4.24019635 24.7707035,3.54511756 C22.0097656,3.085567 19.200391,3.98529267 17.1720707,5.96214777 L17.1720707,5.96214777 L16.4455082,6.6875 L15.7734384,5.9609375 L15.7734384,5.9609375 Z" id=""></path>
        </g>
    </g>
</svg>