<?xml version="1.0" encoding="UTF-8"?>
<svg width="31px" height="27px" viewBox="0 0 31 27" version="1.1" xmlns="http://www.w3.org/2000/svg" xmlns:xlink="http://www.w3.org/1999/xlink">
    <title></title>
    <g id="Page-1" stroke="none" stroke-width="1" fill="none" fill-rule="evenodd">
        <g id="Artboard" transform="translate(-1.000000, -3.000000)" fill="#CC3035" fill-rule="nonzero">
            <path d="M16.5,29.9375 C17.123633,29.9375 17.7230485,29.7013676 18.1771501,29.2775394 L18.1771501,29.2775394 L29.1179693,19.0632809 C30.9585939,17.3498051 32,14.9460934 32,12.4333981 L32,12.4333981 L32,12.0822269 C32,7.85000074 28.9423837,4.24019635 24.7707044,3.54511756 C22.0097665,3.085567 19.2003919,3.98529267 17.1720716,5.96214777 L17.1720716,5.96214777 L16.5,6.6875 L15.7734384,5.96214777 C13.7996099,3.98529267 10.9357435,3.085567 8.22929743,3.54511756 C4.05882838,4.24019635 1,7.85000074 1,12.0822269 L1,12.0822269 L1,12.4333981 C1,14.9460934 2.04322332,17.3498051 3.88142648,19.0632809 L3.88142648,19.0632809 L14.8228527,29.2775394 C15.2769542,29.7013676 15.8763679,29.9375 16.5,29.9375 Z" id=""></path>
        </g>
    </g>
</svg>